<svg xmlns="http://www.w3.org/2000/svg" viewBox="0 0 752.83 252.12"><defs><style>.cls-1{fill:none;stroke-width:25px;}.cls-1,.cls-2,.cls-4,.cls-8{stroke:#fff;}.cls-1,.cls-4,.cls-8{stroke-miterlimit:10;}.cls-2{font-size:35px;letter-spacing:-0.05em;}.cls-2,.cls-4,.cls-8{fill:#fff;}.cls-2,.cls-4{font-family:ProximaNova-Bold, Proxima Nova;font-weight:700;}.cls-3{letter-spacing:-0.06em;}.cls-4{font-size:120px;stroke-width:0.5px;letter-spacing:-0.09em;}.cls-5{letter-spacing:-0.09em;}.cls-6{letter-spacing:-0.08em;}.cls-7{letter-spacing:-0.13em;}</style></defs><title>Asset 6</title><g id="Layer_2" data-name="Layer 2"><g id="Layer_2-2" data-name="Layer 2"><path class="cls-1" d="M238.17,126.06A113.57,113.57,0,0,1,17.82,164.72H92.29l21.82-42.37L92.29,80H20.8a113.57,113.57,0,0,1,217.37,46.08Z"/><polygon class="cls-1" points="215.99 62.26 463.51 62.26 699.24 62.26 451.71 62.26 215.99 62.26"/><text class="cls-2" transform="translate(323.15 192.82)">ELEKTROINDU<tspan class="cls-3" x="217.66" y="0">S</tspan><tspan x="236.46" y="0">TRIE</tspan></text><text class="cls-4" transform="translate(232.01 143.64)">B<tspan class="cls-5" x="69.36" y="0">A</tspan><tspan class="cls-6" x="140.4" y="0">SCH</tspan><tspan class="cls-7" x="351.96" y="0">K</tspan><tspan x="412.44" y="0">O</tspan></text><path class="cls-1" d="M192.94,104.42a69.9,69.9,0,0,0-61.5-47.23"/><line class="cls-1" x1="321.82" y1="180.99" x2="224.02" y2="180.99"/><path class="cls-1" d="M696.63,143.4c19,0,33.61-20.88,32.6-42.91-.94-20.4-12.42-38.23-32.6-38.23"/><path class="cls-1" d="M686.78,178.54c-13.91,0-24.58-8.61-23.84-17.69.69-8.42,9.08-16.68,23.84-16.68"/><line class="cls-1" x1="699.24" y1="178.14" x2="705.64" y2="178.14"/><line class="cls-1" x1="699.24" y1="143.2" x2="681.09" y2="144.62"/><line class="cls-1" x1="685.03" y1="178.5" x2="700.09" y2="178.14"/><path class="cls-8" d="M683.2,182.79l7.62-9.89h9.11a22.61,22.61,0,0,1,3.52-8.17A21.84,21.84,0,0,1,720.92,155c4.3-.22,8.6-.17,12.91-.22,1.16,0,1.5.33,1.52,1.51,0,2.54.08,5.08.12,7.69l1.07,0c4-.06,8-.13,12.06-.16a3.19,3.19,0,0,1,3.32,2.41,3.11,3.11,0,0,1-1.41,3.57,4.94,4.94,0,0,1-2.11.52c-3.88.1-7.76.13-11.64.19l-1.19,0,.2,13.24H738l10.37-.15c2.38,0,3.88,1.19,3.91,3.19s-1.4,3.3-3.77,3.33l-11.43.17-1.25,0c0,2.44.07,4.83.1,7.22,0,1.83-.16,2-1.94,2.05l-11.11.16c-11.09.14-19.63-6.19-22.71-16.82,0-.1-.08-.2-.14-.36-.36,0-.74,0-1.12,0l-14.7.21c-.35,0-.7,0-1-.06"/></g></g></svg>